<?xml version="1.0" encoding="UTF-8"?>
<svg xmlns="http://www.w3.org/2000/svg" xmlns:xlink="http://www.w3.org/1999/xlink" width="500px" height="200px" viewBox="0 20 500 200" version="1.1">
<g id="surface1">
<path style=" stroke:none;fill-rule:nonzero;fill:rgb(99.607843%,99.607843%,99.607843%);fill-opacity:1;" d="M 0 0 C 165 0 330 0 500 0 C 500 82.5 500 165 500 250 C 335 250 170 250 0 250 C 0 167.5 0 85 0 0 Z M 0 0 "/>
<path style=" stroke:none;fill-rule:nonzero;fill:rgb(60.392157%,38.039216%,30.588235%);fill-opacity:1;" d="M 325 110 C 328.960938 110 332.921875 110 337 110 C 337 112.144531 337 114.289062 337 116.5 C 341.621094 116.5 346.238281 116.5 351 116.5 C 351 118.316406 351 120.128906 351 122 C 346.378906 122 341.761719 122 337 122 C 337.085938 124.136719 337.195312 126.269531 337.3125 128.40625 C 337.335938 129.015625 337.359375 129.621094 337.382812 130.246094 C 337.417969 130.828125 337.453125 131.410156 337.488281 132.007812 C 337.515625 132.546875 337.539062 133.082031 337.566406 133.636719 C 337.785156 135.003906 337.785156 135.003906 339.375 135.921875 C 341.625 136.722656 343.453125 136.753906 346.1875 136.84375 C 348.570312 136.921875 348.570312 136.921875 351 137 C 351 138.816406 351 140.628906 351 142.5 C 335.1875 142.800781 335.1875 142.800781 329 141 C 324.464844 138.761719 323.65625 136.441406 323.511719 133.328125 C 323.527344 131.96875 323.601562 130.609375 323.6875 129.25 C 323.710938 128.546875 323.734375 127.839844 323.757812 127.136719 C 323.816406 125.425781 323.898438 123.710938 324 122 C 321.03125 122 318.058594 122 315 122 C 314.503906 121.011719 314.503906 121.011719 314 120 C 313.691406 120.359375 313.378906 120.71875 313.0625 121.089844 C 306.210938 129.039062 299.285156 136.96875 292.25 144.875 C 291.894531 145.273438 291.539062 145.675781 291.171875 146.085938 C 290.164062 147.222656 289.152344 148.355469 288.140625 149.492188 C 287.835938 149.832031 287.535156 150.175781 287.21875 150.527344 C 285.117188 152.882812 285.117188 152.882812 284 154 C 279.378906 154 274.761719 154 270 154 C 272.027344 150.804688 274.410156 147.769531 277.1875 144.71875 C 277.554688 144.308594 277.921875 143.902344 278.304688 143.480469 C 279.199219 142.484375 280.097656 141.492188 281 140.5 C 280.011719 140.5 279.019531 140.5 278 140.5 C 275.449219 137.484375 272.902344 134.46875 270.363281 131.453125 C 269.5 130.425781 268.632812 129.398438 267.765625 128.375 C 266.519531 126.898438 265.277344 125.421875 264.035156 123.945312 C 263.648438 123.488281 263.257812 123.03125 262.859375 122.5625 C 262.316406 121.914062 262.316406 121.914062 261.765625 121.257812 C 261.449219 120.882812 261.128906 120.503906 260.804688 120.117188 C 260 119 260 119 259 116.5 C 263.621094 116.5 268.238281 116.5 273 116.5 C 277.734375 122.152344 282.367188 127.828125 287 133.5 C 289.144531 131.890625 290.570312 130.238281 292.039062 128.460938 C 292.324219 128.121094 292.609375 127.777344 292.90625 127.425781 C 293.816406 126.335938 294.71875 125.246094 295.625 124.15625 C 296.242188 123.417969 296.859375 122.675781 297.476562 121.9375 C 298.988281 120.125 300.492188 118.3125 302 116.5 C 309.261719 116.5 316.519531 116.5 324 116.5 C 324.496094 113.28125 324.496094 113.28125 325 110 Z M 325 110 "/>
<path style=" stroke:none;fill-rule:nonzero;fill:rgb(61.176471%,39.215686%,32.156863%);fill-opacity:1;" d="M 138.4375 116.84375 C 144.066406 118.488281 147.074219 120.921875 149 124 C 149.375 125.46875 149.351562 126.910156 149.292969 128.390625 C 149.289062 128.792969 149.285156 129.199219 149.28125 129.617188 C 149.261719 130.902344 149.226562 132.183594 149.1875 133.46875 C 149.171875 134.34375 149.160156 135.21875 149.148438 136.09375 C 149.113281 138.230469 149.0625 140.363281 149 142.5 C 144.378906 142.5 139.761719 142.5 135 142.5 C 134.992188 141.984375 134.980469 141.464844 134.972656 140.933594 C 134.933594 139.007812 134.867188 137.085938 134.792969 135.160156 C 134.765625 134.328125 134.742188 133.496094 134.730469 132.664062 C 134.707031 131.46875 134.660156 130.269531 134.609375 129.070312 C 134.609375 128.703125 134.605469 128.332031 134.605469 127.953125 C 134.46875 125.511719 133.542969 124.195312 130 122.5 C 126.269531 122.027344 122.769531 122.144531 119 122.5 C 116.101562 123.601562 114.605469 124.394531 113 126 C 112.84375 127.238281 112.742188 128.464844 112.683594 129.707031 C 112.664062 130.070312 112.640625 130.4375 112.621094 130.8125 C 112.554688 131.980469 112.496094 133.144531 112.4375 134.3125 C 112.394531 135.101562 112.351562 135.894531 112.304688 136.683594 C 112.199219 138.621094 112.097656 140.5625 112 142.5 C 107.378906 142.5 102.761719 142.5 98 142.5 C 98 133.921875 98 125.339844 98 116.5 C 101.960938 116.5 105.921875 116.5 110 116.5 C 110.660156 117.65625 111.320312 118.808594 112 120 C 112.542969 119.753906 113.085938 119.507812 113.644531 119.25 C 114.359375 118.929688 115.074219 118.609375 115.8125 118.28125 C 116.519531 117.960938 117.226562 117.644531 117.957031 117.3125 C 123.441406 115.128906 132.316406 115.417969 138.4375 116.84375 Z M 138.4375 116.84375 "/>
<path style=" stroke:none;fill-rule:nonzero;fill:rgb(60%,37.254902%,30.196078%);fill-opacity:1;" d="M 250 118 C 254.207031 119.898438 256.675781 122.128906 257.171875 124.980469 C 257.230469 126.101562 257.226562 127.21875 257.195312 128.339844 C 257.191406 128.746094 257.191406 129.152344 257.1875 129.570312 C 257.175781 130.859375 257.152344 132.148438 257.125 133.4375 C 257.113281 134.316406 257.105469 135.191406 257.097656 136.070312 C 257.074219 138.214844 257.042969 140.355469 257 142.5 C 252.710938 142.5 248.421875 142.5 244 142.5 C 243.984375 142 243.972656 141.496094 243.957031 140.980469 C 243.898438 139.109375 243.820312 137.242188 243.738281 135.375 C 243.703125 134.566406 243.675781 133.757812 243.652344 132.953125 C 243.621094 131.789062 243.566406 130.625 243.511719 129.460938 C 243.503906 129.105469 243.5 128.746094 243.492188 128.375 C 243.363281 126.179688 242.695312 124.75 240 123 C 236.027344 122.007812 231.308594 122.160156 227 122.5 C 224.054688 123.539062 222.601562 124.898438 221 126.5 C 220.84375 127.703125 220.742188 128.894531 220.683594 130.097656 C 220.664062 130.453125 220.640625 130.804688 220.621094 131.167969 C 220.554688 132.300781 220.496094 133.429688 220.4375 134.5625 C 220.394531 135.328125 220.351562 136.09375 220.304688 136.859375 C 220.199219 138.742188 220.097656 140.621094 220 142.5 C 215.710938 142.5 211.421875 142.5 207 142.5 C 207 133.921875 207 125.339844 207 116.5 C 210.960938 116.5 214.921875 116.5 219 116.5 C 219 117.65625 219 118.808594 219 120 C 219.675781 119.753906 220.351562 119.507812 221.046875 119.25 C 221.9375 118.929688 222.832031 118.609375 223.75 118.28125 C 224.632812 117.960938 225.511719 117.644531 226.421875 117.3125 C 233.890625 114.957031 242.964844 115.511719 250 118 Z M 250 118 "/>
<path style=" stroke:none;fill-rule:nonzero;fill:rgb(60.392157%,38.039216%,30.980392%);fill-opacity:1;" d="M 466.96875 117.753906 C 471.558594 119.441406 473.039062 121.296875 474 124 C 471.898438 124.054688 469.792969 124.09375 467.6875 124.125 C 465.929688 124.160156 465.929688 124.160156 464.136719 124.195312 C 461 124 461 124 459.4375 123 C 458.964844 122.671875 458.488281 122.339844 458 122 C 455.261719 121.757812 455.261719 121.757812 452.3125 121.875 C 450.820312 121.902344 450.820312 121.902344 449.300781 121.929688 C 448.542969 121.953125 447.78125 121.976562 447 122 C 446.339844 122.988281 445.679688 123.980469 445 125 C 445.65625 125.085938 446.308594 125.171875 446.984375 125.257812 C 470.730469 128.410156 470.730469 128.410156 474.875 131.3125 C 476.355469 133.535156 476.195312 135.246094 475 137.5 C 472.304688 140.011719 469.617188 141.488281 464.320312 142.523438 C 456.515625 143.640625 447.71875 143.65625 440.3125 141.90625 C 435.289062 140.417969 432.425781 138.90625 430.75 136.09375 C 430.378906 135.304688 430.378906 135.304688 430 134.5 C 434.621094 134.5 439.238281 134.5 444 134.5 C 444.660156 135.160156 445.320312 135.820312 446 136.5 C 449.628906 137.894531 453.636719 137.636719 458 137.5 C 458.988281 137.171875 459.980469 136.839844 461 136.5 C 461.25 134.957031 461.25 134.957031 461 133.5 C 456.332031 132.558594 451.855469 131.855469 446.9375 131.3125 C 441.527344 130.660156 438.15625 129.851562 434 128 C 431.453125 125.894531 430.976562 123.902344 432 121.5 C 434.703125 119.1875 438.6875 117.085938 443.863281 116.203125 C 452.171875 115.414062 459.574219 115.628906 466.96875 117.753906 Z M 466.96875 117.753906 "/>
<path style=" stroke:none;fill-rule:nonzero;fill:rgb(60.392157%,38.039216%,30.980392%);fill-opacity:1;" d="M 414.375 117 C 419.132812 118.371094 423.1875 120.121094 426 122.5 C 426.496094 123.984375 426.496094 123.984375 427 125.5 C 422.378906 125.5 417.761719 125.5 413 125.5 C 412.339844 124.675781 411.679688 123.851562 411 123 C 409.175781 122.546875 409.175781 122.546875 407 122.5 C 406.207031 122.460938 405.414062 122.421875 404.597656 122.382812 C 400.425781 122.320312 397.726562 122.304688 394 123.3125 C 390.125 125.613281 389.59375 127.996094 389.75 130.914062 C 390.261719 133.144531 392.1875 134.546875 395.125 136.1875 C 399.109375 137.3125 402.523438 137.484375 407 137 C 409.753906 135.910156 411.4375 135.0625 413 133.5 C 417.621094 133.5 422.238281 133.5 427 133.5 C 425.78125 137.152344 423.816406 138.914062 418 141.15625 C 410.152344 143.363281 402.78125 143.414062 394 143 C 386.558594 141.851562 381.386719 139.207031 377.746094 135.839844 C 374.226562 131.929688 373.707031 128.457031 376.625 124.40625 C 380.210938 120.414062 384.871094 118.113281 393 116.5 C 399.890625 115.351562 407.765625 115.488281 414.375 117 Z M 414.375 117 "/>
<path style=" stroke:none;fill-rule:nonzero;fill:rgb(61.176471%,39.215686%,32.156863%);fill-opacity:1;" d="M 180 105 C 180 106.816406 180 108.628906 180 110.5 C 177.359375 110.828125 174.71875 111.160156 172 111.5 C 171.671875 113.148438 171.339844 114.800781 171 116.5 C 174.628906 116.5 178.261719 116.5 182 116.5 C 182 118.480469 182 120.460938 182 122.5 C 178.371094 122.5 174.738281 122.5 171 122.5 C 171 129.101562 171 135.699219 171 142.5 C 166.378906 142.5 161.761719 142.5 157 142.5 C 157 135.898438 157 129.300781 157 122.5 C 154.691406 122.5 152.378906 122.5 150 122.5 C 150 120.519531 150 118.539062 150 116.5 C 152.308594 116.5 154.621094 116.5 157 116.5 C 156.953125 116.109375 156.90625 115.714844 156.859375 115.3125 C 156.625 111.902344 156.554688 109.667969 161 107 C 166.886719 104.679688 172.765625 104.820312 180 105 Z M 180 105 "/>
<path style=" stroke:none;fill-rule:nonzero;fill:rgb(81.568627%,29.411765%,33.72549%);fill-opacity:1;" d="M 52 113 C 57.609375 113 63.21875 113 69 113 C 69 123.066406 69 133.128906 69 143.5 C 63.390625 143.5 57.78125 143.5 52 143.5 C 52 133.433594 52 123.371094 52 113 Z M 52 113 "/>
<path style=" stroke:none;fill-rule:nonzero;fill:rgb(59.607843%,37.254902%,29.803922%);fill-opacity:1;" d="M 78 106 C 82.289062 106 86.578125 106 91 106 C 91 118.046875 91 130.089844 91 142.5 C 86.710938 142.5 82.421875 142.5 78 142.5 C 78 130.453125 78 118.410156 78 106 Z M 78 106 "/>
<path style=" stroke:none;fill-rule:nonzero;fill:rgb(61.568627%,40%,32.941176%);fill-opacity:1;" d="M 356 116.5 C 360.621094 116.5 365.238281 116.5 370 116.5 C 370 125.078125 370 133.660156 370 142.5 C 365.378906 142.5 360.761719 142.5 356 142.5 C 356 133.921875 356 125.339844 356 116.5 Z M 356 116.5 "/>
<path style=" stroke:none;fill-rule:nonzero;fill:rgb(59.607843%,36.862745%,29.411765%);fill-opacity:1;" d="M 186 117 C 190.289062 117 194.578125 117 199 117 C 199 125.414062 199 133.828125 199 142.5 C 194.710938 142.5 190.421875 142.5 186 142.5 C 186 134.085938 186 125.671875 186 117 Z M 186 117 "/>
<path style=" stroke:none;fill-rule:nonzero;fill:rgb(81.176471%,29.019608%,33.333333%);fill-opacity:1;" d="M 33 125 C 38.28125 125 43.558594 125 49 125 C 49 131.105469 49 137.210938 49 143.5 C 43.71875 143.5 38.441406 143.5 33 143.5 C 33 137.394531 33 131.289062 33 125 Z M 33 125 "/>
<path style=" stroke:none;fill-rule:nonzero;fill:rgb(81.568627%,30.588235%,34.901961%);fill-opacity:1;" d="M 17 129 C 20.960938 129 24.921875 129 29 129 C 29 133.785156 29 138.570312 29 143.5 C 25.039062 143.5 21.078125 143.5 17 143.5 C 17 138.714844 17 133.929688 17 129 Z M 17 129 "/>
<path style=" stroke:none;fill-rule:nonzero;fill:rgb(60.784314%,38.431373%,31.372549%);fill-opacity:1;" d="M 196 105 C 198.9375 105.8125 198.9375 105.8125 201 107 C 201.71875 108.878906 201.265625 109.746094 199.5 111.4375 C 196.445312 112.734375 194.804688 112.816406 190.90625 112.671875 C 188.042969 112.414062 186.769531 112.179688 185 111 C 184.4375 108.789062 184.199219 107.640625 186.5625 105.75 C 189.964844 104.703125 192.070312 104.722656 196 105 Z M 196 105 "/>
<path style=" stroke:none;fill-rule:nonzero;fill:rgb(60.392157%,38.039216%,30.980392%);fill-opacity:1;" d="M 366 105 C 368.875 105.78125 368.875 105.78125 371 107 C 371.632812 108.964844 371.601562 110.011719 369.5 111.71875 C 365.980469 112.820312 363.046875 112.902344 359 112.5 C 356.5 111.71875 356.5 111.71875 355 110.5 C 354.4375 108.75 354.4375 108.75 355 107 C 358.316406 105.097656 361.027344 104.585938 366 105 Z M 366 105 "/>
</g>
</svg>
